<svg width="482" height="89" viewBox="0 0 482 89" fill="none" xmlns="http://www.w3.org/2000/svg">
<mask id="mask0_2950_931" style="mask-type:luminance" maskUnits="userSpaceOnUse" x="45" y="4" width="53" height="78">
<path d="M45.333 4.19788H97.333V81.3333H45.333V4.19788Z" fill="white"/>
</mask>
<g mask="url(#mask0_2950_931)">
<path d="M96.9316 63.3698C96.6452 55.0417 95.4056 46.2708 93.3483 38.224C91.1712 29.6927 86.4629 21.7708 78.1868 18C72.5879 15.4427 65.3848 14.9635 60.0983 18.2865C58.5618 19.25 57.1452 20.026 55.8223 20.6406L57.0098 4.20312L49.14 32.3125L67.1973 27.0885L51.3796 52.8385L49.4368 56.0052L47.791 58.6823L45.3691 62.6302L50.2181 58.6927C58.6139 59.1458 64.2389 63.7552 67.9316 68.5938C72.9264 75.1458 80.2285 84.25 89.7181 80.3229C96.3066 77.599 97.14 69.5833 96.9264 63.3698H96.9316ZM78.0566 28.1094C80.2025 28.1094 81.9421 29.849 81.9421 31.9948C81.9421 34.1406 80.2025 35.8802 78.0566 35.8802C75.9108 35.8802 74.1712 34.1406 74.1712 31.9948C74.1712 29.849 75.9108 28.1094 78.0566 28.1094ZM70.7389 43.1979C68.5931 43.1979 66.8535 41.4583 66.8535 39.3125C66.8535 37.1667 68.5931 35.4271 70.7389 35.4271C72.8848 35.4271 74.6243 37.1667 74.6243 39.3125C74.6243 41.4583 72.8848 43.1979 70.7389 43.1979ZM78.0566 50.5156C75.9108 50.5156 74.1712 48.776 74.1712 46.6302C74.1712 44.4844 75.9108 42.7448 78.0566 42.7448C80.2025 42.7448 81.9421 44.4844 81.9421 46.6302C81.9421 48.776 80.2025 50.5156 78.0566 50.5156ZM85.3744 43.1979C83.2285 43.1979 81.4889 41.4583 81.4889 39.3125C81.4889 37.1667 83.2285 35.4271 85.3744 35.4271C87.5202 35.4271 89.2598 37.1667 89.2598 39.3125C89.2598 41.4583 87.5202 43.1979 85.3744 43.1979Z" fill="#1D1E25"/>
</g>
<mask id="mask1_2950_931" style="mask-type:luminance" maskUnits="userSpaceOnUse" x="0" y="14" width="51" height="68">
<path d="M0.567383 14.6666H50.6663V81.3333H0.567383V14.6666Z" fill="white"/>
</mask>
<g mask="url(#mask1_2950_931)">
<path d="M49.8439 39.3124L30.9897 44.7604L47.3595 17.9687L42.7345 21.0156C41.1772 20.3541 39.4845 19.4635 37.6147 18.2864C32.3282 14.9635 25.1303 15.4426 19.5262 17.9999C11.2553 21.7708 6.54179 29.6927 4.36471 38.2239C2.30741 46.2708 1.07304 55.0416 0.78658 63.3697C0.573039 69.5833 1.41158 77.5989 7.99491 80.3229C17.4845 84.2499 24.7866 75.1458 29.7814 68.5937C32.0001 65.6874 34.9376 62.8802 38.7397 60.9895L36.3855 73.0104L49.8439 39.3124ZM27.5574 41.0156C27.5574 41.7656 26.948 42.3749 26.1928 42.3749H21.8751V46.6979C21.8751 47.4479 21.2657 48.0572 20.5105 48.0572H17.1043C16.3543 48.0572 15.7449 47.4479 15.7449 46.6979V42.3749H11.422C10.672 42.3749 10.0626 41.7656 10.0626 41.0156V37.6093C10.0626 36.8593 10.672 36.2499 11.422 36.2499H15.7449V31.927C15.7449 31.177 16.3543 30.5677 17.1043 30.5677H20.5105C21.2657 30.5677 21.8751 31.177 21.8751 31.927V36.2499H26.1928C26.948 36.2499 27.5574 36.8593 27.5574 37.6093V41.0156Z" fill="#063872"/>
</g>
<mask id="mask2_2950_931" style="mask-type:luminance" maskUnits="userSpaceOnUse" x="45" y="64" width="13" height="12">
<path d="M45.333 64H57.333V76H45.333V64Z" fill="white"/>
</mask>
<g mask="url(#mask2_2950_931)">
<mask id="mask3_2950_931" style="mask-type:luminance" maskUnits="userSpaceOnUse" x="45" y="64" width="12" height="12">
<path d="M45.3848 69.599L50.8379 64.1459L56.291 69.599L50.8379 75.0521L45.3848 69.599Z" fill="white"/>
</mask>
<g mask="url(#mask3_2950_931)">
<path d="M45.3848 69.599L50.8379 64.1459L56.291 69.599L50.8379 75.0521L45.3848 69.599Z" fill="#063872"/>
</g>
</g>
<mask id="mask4_2950_931" style="mask-type:luminance" maskUnits="userSpaceOnUse" x="30" y="76" width="8" height="7">
<path d="M30.667 76H37.3337V82.6667H30.667V76Z" fill="white"/>
</mask>
<g mask="url(#mask4_2950_931)">
<mask id="mask5_2950_931" style="mask-type:luminance" maskUnits="userSpaceOnUse" x="31" y="77" width="6" height="6">
<path d="M31.0215 79.7656L33.5215 77.2656L36.0215 79.7656L33.5215 82.2656L31.0215 79.7656Z" fill="white"/>
</mask>
<g mask="url(#mask5_2950_931)">
<path d="M31.0215 79.7656L33.5215 77.2656L36.0215 79.7656L33.5215 82.2656L31.0215 79.7656Z" fill="#1D1E25"/>
</g>
</g>
<mask id="mask6_2950_931" style="mask-type:luminance" maskUnits="userSpaceOnUse" x="57" y="76" width="10" height="8">
<path d="M57.333 76H66.6663V84H57.333V76Z" fill="white"/>
</mask>
<g mask="url(#mask6_2950_931)">
<mask id="mask7_2950_931" style="mask-type:luminance" maskUnits="userSpaceOnUse" x="58" y="76" width="8" height="8">
<path d="M58.3379 79.7657L61.89 76.2084L65.4473 79.7657L61.89 83.323L58.3379 79.7657Z" fill="white"/>
</mask>
<g mask="url(#mask7_2950_931)">
<path d="M58.3379 79.7657L61.89 76.2084L65.4473 79.7657L61.89 83.323L58.3379 79.7657Z" fill="#1D1E25"/>
</g>
</g>
<path d="M141.164 63.4905H107.102V29.428H141.164V37.4488H115.143V55.4488H133.143V50.4696H126.622V42.4488H141.164V63.4905Z" fill="#1D1E25"/>
<path d="M178.855 29.428V63.4905H170.835V56.9905H152.835V63.4905H144.793V29.428H178.855ZM152.835 48.9488H170.835V37.4488H152.835V48.9488Z" fill="#1D1E25"/>
<path d="M229.569 29.428V63.4905H221.527V37.4488L210.048 37.5113V63.4905H202.006V37.5113L190.527 37.4488V63.4905H182.485V29.428H229.569Z" fill="#1D1E25"/>
<path d="M267.255 37.4488H241.234V42.4488H267.255V50.4696H241.234V55.4488H267.255V63.4905H233.192V29.428H267.255V37.4488Z" fill="#1D1E25"/>
<path d="M306.185 29.428L300.685 63.4905H276.394L270.894 29.428H279.581L283.748 55.4488H293.31L297.477 29.428H306.185Z" fill="#063872"/>
<path d="M343.868 37.4488H317.847V42.4488H343.868V50.4696H317.847V55.4488H343.868V63.4905H309.806V29.428H343.868V37.4488Z" fill="#063872"/>
<path d="M347.497 29.428H381.56V56.9905H374.997L381.455 63.4905H371.705L365.351 56.9905H355.539V63.4905H347.497V29.428ZM355.539 48.9488H373.539V37.4488H355.539V48.9488Z" fill="#063872"/>
<path d="M385.188 55.4488H411.23V50.4696H385.188V29.428H419.251V37.4488H393.23V42.4488H419.251V63.4905H385.188V55.4488Z" fill="#063872"/>
<path d="M456.943 29.428V63.4905H448.923V56.9905H430.923V63.4905H422.881V29.428H456.943ZM430.923 48.9488H448.923V37.4488H430.923V48.9488Z" fill="#063872"/>
</svg>
